<?xml version="1.0" encoding="UTF-8" standalone="no"?>
<svg
   width="582.871mm"
   height="335.685mm"
   viewBox="0 0 582.871 335.685"
   version="1.1"
   preserveAspectRatio="xMidYMid meet"
   id="svg1"
   sodipodi:docname="nixie2.svg"
   inkscape:version="1.3 (0e150ed6c4, 2023-07-21)"
   xmlns:inkscape="http://www.inkscape.org/namespaces/inkscape"
   xmlns:sodipodi="http://sodipodi.sourceforge.net/DTD/sodipodi-0.dtd"
   xmlns="http://www.w3.org/2000/svg"
   xmlns:svg="http://www.w3.org/2000/svg">
  <defs
     id="defs1" />
  <sodipodi:namedview
     id="namedview1"
     pagecolor="#ffffff"
     bordercolor="#666666"
     borderopacity="1.0"
     inkscape:showpageshadow="2"
     inkscape:pageopacity="0.0"
     inkscape:pagecheckerboard="0"
     inkscape:deskcolor="#d1d1d1"
     inkscape:document-units="mm"
     inkscape:zoom="0.45204625"
     inkscape:cx="963.39699"
     inkscape:cy="436.90219"
     inkscape:window-width="1920"
     inkscape:window-height="1145"
     inkscape:window-x="0"
     inkscape:window-y="0"
     inkscape:window-maximized="1"
     inkscape:current-layer="svg1" />
  <path
     d="m 8.9080141,119.85595 v 6.813 h -3 v 6 h 3 v 6 h -3 v 6 h 3 v 6 h -3 v 6 h 3 v 6.814 l 0.208,2.488 0.618,2.42 1.0099999,2.283 1.376,2.085 1.702,1.827 1.981,1.519 2.207,1.17 2.369,0.787 2.468,0.383 1.061,0.038 h 13.342 v 3 h 6 v -3 h 6 v 3 h 6 v -3 h 6 v 3 h 6 v -3 h 6 v 3 h 6 v -3 h 6 v 3 h 6 v -3 h 6 v 3 h 5.999996 v -3 h 6 v 3 h 6 v -3 h 6 v 3 h 6 v -3 h 6 v 3 h 6 v -3 h 6 v 3 h 6 v -3 h 6 v 3 h 6 v -3 h 6 v 3 h 6 v -3 h 6 v 3 h 6 v -3 h 6 v 3 h 6 v -3 h 6 v 3 h 6 v -3 h 6 7.343 l 2.488,-0.208 2.42,-0.618 2.283,-1.01 2.084,-1.376 1.827,-1.702 1.52,-1.981 1.169,-2.207 0.788,-2.369 0.383,-2.468 0.038,-1.061 v -7.907 h 3 v -6 h -3 v -6 -1.907 -7.906 h 3 v -6 h -3 v -6 -1.907 l -0.208,-2.489 -0.618,-2.419 -1.011,-2.283 -1.375,-2.085 -1.702,-1.827 -1.982,-1.519 -2.206,-1.17 -2.37,-0.787 -2.467,-0.384 -1.061,-0.037 h -13.343 v -3.00002 h -6 v 3.00002 h -6 v -3.00002 h -6 v 3.00002 h -6 v -3.00002 h -6 v 3.00002 h -6 v -3.00002 h -6 v 3.00002 h -6 v -3.00002 h -6 v 3.00002 h -6 v -3.00002 h -6 v 3.00002 h -6 v -3.00002 h -6 v 3.00002 h -6 v -3.00002 h -6 v 3.00002 h -6 v -3.00002 h -6 v 3.00002 h -6 v -3.00002 h -5.999996 v 3.00002 h -6 v -3.00002 h -6 v 3.00002 h -6 v -3.00002 h -6 v 3.00002 h -6 v -3.00002 h -6 v 3.00002 h -6 v -3.00002 h -6 v 3.00002 h -6 v -3.00002 h -6 v 3.00002 h -6 -7.342 l -2.488,0.208 -2.42,0.618 -2.283,1.01 -2.085,1.376 -1.827,1.702 -1.519,1.981 -1.17,2.207 -0.7869999,2.369 -0.383,2.468 z"
     id="TOP_outsideCutPath"
     stroke="#FF0000"
     stroke-width="0.1"
     style="font-size:12px;fill:none;fill-rule:evenodd;stroke:#000000;stroke-width:0.1;stroke-linecap:round;stroke-opacity:1;stroke-dasharray:none"
     vector-effect="non-scaling-stroke" />
  <path
     d="m 248.33886,119.85595 v 6.813 h -3 v 6 h 3 v 6 h -3 v 6 h 3 v 6 h -3 v 6 h 3 v 6.814 l 0.208,2.488 0.618,2.42 1.01,2.283 1.376,2.084 1.702,1.828 1.981,1.519 2.207,1.17 2.369,0.787 2.468,0.383 1.061,0.038 h 13.342 v 3 h 6 v -3 h 6 v 3 h 6 v -3 h 6 v 3 h 6 v -3 h 6 v 3 h 6 v -3 h 6 v 3 h 6 v -3 h 6 v 3 h 6 v -3 h 6 v 3 h 6 v -3 h 6 v 3 h 6 v -3 h 6 v 3 h 6 v -3 h 6 v 3 h 6 v -3 h 6 v 3 h 6 v -3 h 6 v 3 h 6 v -3 h 6 v 3 h 6 v -3 h 6 v 3 h 6 v -3 h 6 v 3 h 6 v -3 h 6 7.343 l 2.488,-0.208 2.42,-0.618 2.283,-1.01 2.084,-1.376 1.827,-1.702 1.52,-1.982 1.169,-2.206 0.788,-2.37 0.383,-2.467 0.038,-1.061 v -7.907 h 3 v -6 h -3 v -6 -1.907 -7.906 h 3 v -6 h -3 v -6 -1.907 l -0.208,-2.489 -0.618,-2.419 -1.011,-2.284 -1.375,-2.084 -1.702,-1.827 -1.982,-1.519 -2.206,-1.17 -2.37,-0.787 -2.467,-0.384 -1.061,-0.037 h -13.343 v -3 h -6 v 3 h -6 v -3 h -6 v 3 h -6 v -3 h -6 v 3 h -6 v -3 h -6 v 3 h -6 v -3 h -6 v 3 h -6 v -3 h -6 v 3 h -6 v -3 h -6 v 3 h -6 v -3 h -6 v 3 h -6 v -3 h -6 v 3 h -6 v -3 h -6 v 3 h -6 v -3 h -6 v 3 h -6 v -3 h -6 v 3 h -6 v -3 h -6 v 3 h -6 v -3 h -6 v 3 h -6 v -3 h -6 v 3 h -6 -7.342 l -2.488,0.208 -2.42,0.617 -2.283,1.011 -2.085,1.375 -1.827,1.703 -1.519,1.981 -1.17,2.206 -0.787,2.37 -0.383,2.468 z"
     id="BOTTOM_outsideCutPath"
     stroke="#FF0000"
     stroke-width="0.1"
     style="font-size:12px;fill:none;fill-rule:evenodd;stroke:#000000;stroke-width:0.1;stroke-linecap:round;stroke-opacity:1;stroke-dasharray:none"
     vector-effect="non-scaling-stroke" />
  <path
     d="M 21.814,96 V 72 m 0,-12 V 36 m 0,-12 V 0 m 3.427,96 v -6 m 0,-12 V 54 m 0,-12 V 18 m 0,-12 V 0 m 3.427,96 V 72 m 0,-12 V 36 m 0,-12 V 0 m 3.427,96 v -6 m 0,-12 V 54 m 0,-12 V 18 m 0,-12 V 0 m 3.427,96 V 72 m 0,-12 V 36 m 0,-12 V 0 m 3.427,96 v -6 m 0,-12 V 54 m 0,-12 V 18 m 0,-12 V 0 m 3.427,96 V 72 m 0,-12 V 36 m 0,-12 V 0 M 246.06,96 V 72 m 0,-12 V 36 m 0,-12 V 0 m 3.427,96 v -6 m 0,-12 V 54 m 0,-12 V 18 m 0,-12 V 0 m 3.427,96 V 72 m 0,-12 V 36 m 0,-12 V 0 m 3.427,96 v -6 m 0,-12 V 54 m 0,-12 V 18 m 0,-12 V 0 m 3.427,96 V 72 m 0,-12 V 36 m 0,-12 V 0 m 3.427,96 v -6 m 0,-12 V 54 m 0,-12 V 18 m 0,-12 V 0 m 3.427,96 V 72 m 0,-12 V 36 m 0,-12 V 0 m 46.627,96 V 72 m 0,-12 V 36 m 0,-12 V 0 m 3.427,96 v -6 m 0,-12 V 54 m 0,-12 V 18 m 0,-12 V 0 m 3.427,96 V 72 m 0,-12 V 36 m 0,-12 V 0 m 3.427,96 v -6 m 0,-12 V 54 m 0,-12 V 18 m 0,-12 V 0 m 3.427,96 V 72 m 0,-12 V 36 m 0,-12 V 0 m 3.427,96 v -6 m 0,-12 V 54 m 0,-12 V 18 m 0,-12 V 0 m 3.427,96 V 72 m 0,-12 V 36 m 0,-12 V 0 M 537.496,96 V 72 m 0,-12 V 36 m 0,-12 V 0 m 3.427,96 v -6 m 0,-12 V 54 m 0,-12 V 18 m 0,-12 V 0 m 3.427,96 V 72 m 0,-12 V 36 m 0,-12 V 0 m 3.427,96 v -6 m 0,-12 V 54 m 0,-12 V 18 m 0,-12 V 0 m 3.427,96 V 72 m 0,-12 V 36 m 0,-12 V 0 m 3.427,96 v -6 m 0,-12 V 54 m 0,-12 V 18 m 0,-12 V 0 m 3.427,96 V 72 m 0,-12 V 36 m 0,-12 V 0"
     id="SIDE_insideCutPath"
     stroke="#0000FF"
     stroke-width="0.1"
     style="font-size:12px;fill:none;fill-rule:evenodd;stroke:#000000;stroke-width:0.1;stroke-linecap:round;stroke-dasharray:none;stroke-opacity:1"
     vector-effect="non-scaling-stroke" />
  <path
     d="m 0,0 v 96 h 7.907 6 6 1.907 23.562 13.342 6 6 6 6 6 6 6 6 6 6 6 6 6 6 6 6 6 6 6 6 6 6 6 6 6 6 6 6 6 6 7.342 23.562 6.814 6 6 6 6 6 6.813 23.562 13.343 6 6 6 6 6 6 6 6 6 6 6 6 6 6 6 6 6 6 6 6 6 6 6 6 6 6 6 6 6 6 7.342 23.562 7.907 6 6 1.906 V 0 h -7.906 v 3 h -6 V 0 h -6 -1.907 -23.562 -13.342 v 3 h -6 V 0 h -6 v 3 h -6 V 0 h -6 v 3 h -6 V 0 h -6 v 3 h -6 V 0 h -6 v 3 h -6 V 0 h -6 v 3 h -6 V 0 h -6 v 3 h -6 V 0 h -6 v 3 h -6 V 0 h -6 v 3 h -6 V 0 h -6 v 3 h -6 V 0 h -6 v 3 h -6 V 0 h -6 v 3 h -6 V 0 h -6 v 3 h -6 V 0 h -6 v 3 h -6 V 0 h -6 v 3 h -6 V 0 h -6 -7.343 -23.562 -6.813 v 3 h -6 V 0 h -6 v 3 h -6 V 0 h -6 v 3 h -6 V 0 h -6.814 -23.562 -13.342 v 3 h -6 V 0 h -6 v 3 h -6 V 0 h -6 v 3 h -6 V 0 h -6 v 3 h -6 V 0 h -6 v 3 h -6 V 0 h -6 v 3 h -6 V 0 h -6 v 3 h -6 V 0 h -6 v 3 h -6 V 0 h -6 v 3 h -6 V 0 h -6 v 3 h -6 V 0 h -6 v 3 h -6 V 0 h -6 v 3 h -6 V 0 h -6 v 3 h -6 V 0 h -6 v 3 h -6 V 0 h -6 v 3 h -6 V 0 h -6 -7.342 -23.562 -7.907 v 3 h -6 V 0 h -6 z"
     id="SIDE_outsideCutPath"
     stroke="#FF0000"
     stroke-width="0.1"
     style="font-size:12px;fill:none;fill-rule:evenodd;stroke:#000000;stroke-width:0.1;stroke-linecap:round;stroke-dasharray:none;stroke-opacity:1"
     vector-effect="non-scaling-stroke"
     sodipodi:nodetypes="ccccccccccccccccccccccccccccccccccccccccccccccccccccccccccccccccccccccccccccccccccccccccccccccccccccccccccccccccccccccccccccccccccccccccccccccccccccccccccccccccccccccccccccccccccccccccccccccccccccccccccccccccccccccccccccccccccccccccccccccc" />
  <circle
     style="fill:none;stroke:#000000;stroke-width:0.1;stroke-dasharray:none;stroke-opacity:1"
     id="path1"
     cx="38.543015"
     cy="132.38103"
     r="14.499999" />
  <circle
     style="fill:none;stroke:#000000;stroke-width:0.1;stroke-dasharray:none;stroke-opacity:1"
     id="path1-5"
     cx="70.718002"
     cy="132.38103"
     r="14.499999" />
  <circle
     style="fill:none;stroke:#000000;stroke-width:0.1;stroke-dasharray:none;stroke-opacity:1"
     id="path1-2"
     cx="108.27587"
     cy="132.38103"
     r="14.499999" />
  <circle
     style="fill:none;stroke:#000000;stroke-width:0.1;stroke-dasharray:none;stroke-opacity:1"
     id="path1-5-9"
     cx="140.45087"
     cy="132.38103"
     r="14.499999" />
  <circle
     style="fill:none;stroke:#000000;stroke-width:0.1;stroke-dasharray:none;stroke-opacity:1"
     id="path1-0"
     cx="178.22218"
     cy="132.38103"
     r="14.499999" />
  <circle
     style="fill:none;stroke:#000000;stroke-width:0.1;stroke-dasharray:none;stroke-opacity:1"
     id="path1-5-93"
     cx="210.3972"
     cy="132.38103"
     r="14.499999" />
  <g
     id="g5"
     transform="translate(0,-21.695841)"
     style="stroke-width:0.1;stroke-dasharray:none;stroke:#000000;stroke-opacity:1">
    <rect
       style="fill:none;stroke:#000000;stroke-width:0.1;stroke-dasharray:none;stroke-opacity:1"
       id="rect5"
       width="6"
       height="3"
       x="7.9070001"
       y="104.99583" />
    <rect
       style="fill:none;stroke:#000000;stroke-width:0.1;stroke-dasharray:none;stroke-opacity:1"
       id="rect5-3"
       width="6"
       height="3"
       x="58.717999"
       y="104.99583" />
    <rect
       style="fill:none;stroke:#000000;stroke-width:0.1;stroke-dasharray:none;stroke-opacity:1"
       id="rect5-7"
       width="6"
       height="3"
       x="70.718002"
       y="104.99583" />
    <rect
       style="fill:none;stroke:#000000;stroke-width:0.1;stroke-dasharray:none;stroke-opacity:1"
       id="rect5-0"
       width="6"
       height="3"
       x="82.718002"
       y="104.99583" />
    <rect
       style="fill:none;stroke:#000000;stroke-width:0.1;stroke-dasharray:none;stroke-opacity:1"
       id="rect5-06"
       width="6"
       height="3"
       x="94.718002"
       y="104.99583" />
    <rect
       style="fill:none;stroke:#000000;stroke-width:0.1;stroke-dasharray:none;stroke-opacity:1"
       id="rect5-6"
       width="6"
       height="3"
       x="106.718"
       y="104.99583" />
    <rect
       style="fill:none;stroke:#000000;stroke-width:0.1;stroke-dasharray:none;stroke-opacity:1"
       id="rect5-4"
       width="6"
       height="3"
       x="118.718"
       y="104.99583" />
    <rect
       style="fill:none;stroke:#000000;stroke-width:0.1;stroke-dasharray:none;stroke-opacity:1"
       id="rect5-69"
       width="6"
       height="3"
       x="130.718"
       y="104.99583" />
    <rect
       style="fill:none;stroke:#000000;stroke-width:0.1;stroke-dasharray:none;stroke-opacity:1"
       id="rect5-5"
       width="6"
       height="3"
       x="142.718"
       y="104.99583" />
    <rect
       style="fill:none;stroke:#000000;stroke-width:0.1;stroke-dasharray:none;stroke-opacity:1"
       id="rect5-74"
       width="6"
       height="3"
       x="154.718"
       y="104.99583" />
    <rect
       style="fill:none;stroke:#000000;stroke-width:0.1;stroke-dasharray:none;stroke-opacity:1"
       id="rect5-78"
       width="6"
       height="3"
       x="166.718"
       y="104.99583" />
    <rect
       style="fill:none;stroke:#000000;stroke-width:0.1;stroke-dasharray:none;stroke-opacity:1"
       id="rect5-43"
       width="6"
       height="3"
       x="178.75754"
       y="104.99583" />
    <rect
       style="fill:none;stroke:#000000;stroke-width:0.1;stroke-dasharray:none;stroke-opacity:1"
       id="rect5-2"
       width="6"
       height="3"
       x="190.718"
       y="104.99583" />
    <rect
       style="fill:none;stroke:#000000;stroke-width:0.1;stroke-dasharray:none;stroke-opacity:1"
       id="rect5-9"
       width="6"
       height="3"
       x="202.718"
       y="104.99583" />
    <rect
       style="fill:none;stroke:#000000;stroke-width:0.1;stroke-dasharray:none;stroke-opacity:1"
       id="rect5-49"
       width="6"
       height="3"
       x="214.718"
       y="104.99583" />
    <rect
       style="fill:none;stroke:#000000;stroke-width:0.1;stroke-dasharray:none;stroke-opacity:1"
       id="rect5-8"
       width="6"
       height="3"
       x="226.718"
       y="104.99583" />
    <rect
       style="fill:none;stroke:#000000;stroke-width:0.1;stroke-dasharray:none;stroke-opacity:1"
       id="rect5-27"
       width="6"
       height="3"
       x="276.436"
       y="104.99583" />
    <rect
       style="fill:none;stroke:#000000;stroke-width:0.1;stroke-dasharray:none;stroke-opacity:1"
       id="rect5-1"
       width="6"
       height="3"
       x="288.43549"
       y="104.99583" />
    <rect
       style="fill:none;stroke:#000000;stroke-width:0.1;stroke-dasharray:none;stroke-opacity:1"
       id="rect5-59"
       width="6"
       height="3"
       x="300.436"
       y="104.99583" />
    <rect
       style="fill:none;stroke:#000000;stroke-width:0.1;stroke-dasharray:none;stroke-opacity:1"
       id="rect5-15"
       width="6"
       height="3"
       x="350.15399"
       y="104.99583" />
    <rect
       style="fill:none;stroke:#000000;stroke-width:0.1;stroke-dasharray:none;stroke-opacity:1"
       id="rect5-67"
       width="6"
       height="3"
       x="362.15399"
       y="104.99583" />
    <rect
       style="fill:none;stroke:#000000;stroke-width:0.1;stroke-dasharray:none;stroke-opacity:1"
       id="rect5-63"
       width="6"
       height="3"
       x="374.15399"
       y="104.99583" />
    <rect
       style="fill:none;stroke:#000000;stroke-width:0.1;stroke-dasharray:none;stroke-opacity:1"
       id="rect5-12"
       width="6"
       height="3"
       x="386.1593"
       y="104.99583" />
    <rect
       style="fill:none;stroke:#000000;stroke-width:0.1;stroke-dasharray:none;stroke-opacity:1"
       id="rect5-08"
       width="6"
       height="3"
       x="398.15399"
       y="104.99583" />
    <rect
       style="fill:none;stroke:#000000;stroke-width:0.1;stroke-dasharray:none;stroke-opacity:1"
       id="rect5-96"
       width="6"
       height="3"
       x="410.15399"
       y="104.99583" />
    <rect
       style="fill:none;stroke:#000000;stroke-width:0.1;stroke-dasharray:none;stroke-opacity:1"
       id="rect5-61"
       width="6"
       height="3"
       x="422.15399"
       y="104.99583" />
    <rect
       style="fill:none;stroke:#000000;stroke-width:0.1;stroke-dasharray:none;stroke-opacity:1"
       id="rect5-84"
       width="6"
       height="3"
       x="434.15399"
       y="104.99583" />
    <rect
       style="fill:none;stroke:#000000;stroke-width:0.1;stroke-dasharray:none;stroke-opacity:1"
       id="rect5-30"
       width="6"
       height="3"
       x="446.15399"
       y="104.99583" />
    <rect
       style="fill:none;stroke:#000000;stroke-width:0.1;stroke-dasharray:none;stroke-opacity:1"
       id="rect5-47"
       width="6"
       height="3"
       x="458.15399"
       y="104.99583" />
    <rect
       style="fill:none;stroke:#000000;stroke-width:0.1;stroke-dasharray:none;stroke-opacity:1"
       id="rect5-75"
       width="6"
       height="3"
       x="470.15399"
       y="104.99583" />
    <rect
       style="fill:none;stroke:#000000;stroke-width:0.1;stroke-dasharray:none;stroke-opacity:1"
       id="rect5-17"
       width="6"
       height="3"
       x="482.15399"
       y="104.99583" />
    <rect
       style="fill:none;stroke:#000000;stroke-width:0.1;stroke-dasharray:none;stroke-opacity:1"
       id="rect5-41"
       width="6"
       height="3"
       x="494.15399"
       y="104.99583" />
    <rect
       style="fill:none;stroke:#000000;stroke-width:0.1;stroke-dasharray:none;stroke-opacity:1"
       id="rect5-753"
       width="6"
       height="3"
       x="506.15399"
       y="104.99583" />
    <rect
       style="fill:none;stroke:#000000;stroke-width:0.1;stroke-dasharray:none;stroke-opacity:1"
       id="rect5-18"
       width="6"
       height="3"
       x="518.15399"
       y="104.99583" />
    <rect
       style="fill:none;stroke:#000000;stroke-width:0.1;stroke-dasharray:none;stroke-opacity:1"
       id="rect5-33"
       width="6"
       height="3"
       x="568.96503"
       y="104.99583" />
  </g>
</svg>
